# xmcd
#
# Track frame offsets:
#  150
#  14270
#  28097
#  48330
#  60102
#  72919
#  86808
#  100329
#  114009
#  129907
#  144693
#
# Disc length: 2097 seconds
#
# Revision: 0
# Processed by: cddbd v1.5.1PL2 Copyright (c) Steve Scherf et al.
# Submitted via: AltoMP3_Maker 3.0
#
DISCID=89082f0b
DTITLE=Amy Marie  - More of your Love
DYEAR=1900
DGENRE=
TTITLE0=More of your love
TTITLE1=Kiss My
TTITLE2=Amy you're sometimes wrong
TTITLE3=Given Up
TTITLE4=The First time
TTITLE5=Nascar Trip
TTITLE6=Love,Love, Love
TTITLE7=So, WHAT'S NEW
TTITLE8=Goodbye
TTITLE9=Take me back to yesterday
TTITLE10=Daddy, where have you been?
EXTD=
EXTT0=
EXTT1=
EXTT2=
EXTT3=
EXTT4=
EXTT5=
EXTT6=
EXTT7=
EXTT8=
EXTT9=
EXTT10=
PLAYORDER=
